<svg width="1280" height="800" viewBox="0 0 1280 800" xmlns="http://www.w3.org/2000/svg" font-family="-apple-system, Segoe UI, Roboto, Helvetica, Arial, sans-serif">
  <defs>
    <filter id="shadow" x="-5%" y="-5%" width="110%" height="115%">
      <feDropShadow dx="0" dy="10" stdDeviation="18" flood-color="#0b1b2b" flood-opacity="0.18"/>
    </filter>
    <linearGradient id="logo" x1="0" y1="0" x2="0" y2="1">
      <stop offset="0" stop-color="#2d323a"/><stop offset="1" stop-color="#15181c"/>
    </linearGradient>
  </defs>

  <rect width="1280" height="800" fill="#e9edf1"/>

  <!-- App window -->
  <g filter="url(#shadow)">
    <rect x="40" y="32" width="1200" height="736" rx="16" fill="#ffffff" stroke="#dfe5ea"/>
  </g>

  <!-- Top bar -->
  <rect x="40" y="32" width="1200" height="52" rx="16" fill="#f7f9fb"/>
  <rect x="40" y="68" width="1200" height="16" fill="#f7f9fb"/>
  <line x1="40" y1="84" x2="1240" y2="84" stroke="#e6ebf0"/>
  <circle cx="64" cy="58" r="6" fill="#ec6a5e"/>
  <circle cx="84" cy="58" r="6" fill="#f3bf4f"/>
  <circle cx="104" cy="58" r="6" fill="#61c655"/>
  <!-- logo -->
  <rect x="132" y="44" width="28" height="28" rx="7" fill="url(#logo)"/>
  <path d="M141 51 L150 58 L141 65" fill="none" stroke="#5fbf57" stroke-width="2.6" stroke-linecap="round" stroke-linejoin="round"/>
  <rect x="151" y="60" width="7" height="3" rx="1.5" fill="#4ba4e3"/>
  <text x="170" y="63" font-size="16" font-weight="700" fill="#1d2530">BalauDeck</text>
  <text x="270" y="63" font-size="12.5" fill="#9aa4ae">SSH · SFTP · Tunnel · DB</text>

  <!-- Sidebar -->
  <rect x="41" y="85" width="268" height="682" fill="#ffffff"/>
  <line x1="309" y1="85" x2="309" y2="767" stroke="#eceff2"/>
  <text x="64" y="120" font-size="12.5" font-weight="700" fill="#7c8893" letter-spacing="0.4">CONNECTIONS</text>
  <!-- header icons -->
  <g stroke="#9aa4ae" stroke-width="1.7" fill="none" stroke-linecap="round" stroke-linejoin="round">
    <path d="M250 110 a8 8 0 1 1 -2.3 -5.6 M250 105 v4 h-4"/>
    <path d="M268 116 h16 a1.6 1.6 0 0 0 1.6 -1.6 v-7 a1.6 1.6 0 0 0 -1.6 -1.6 h-6.3 l-1.5 -1.7 h-3.2 a1.6 1.6 0 0 0 -1.6 1.6 v9.3 a1.6 1.6 0 0 0 1.6 1.6Z"/>
    <path d="M292 106 h12 M298 100 v12"/>
  </g>
  <!-- search -->
  <rect x="64" y="132" width="222" height="34" rx="9" fill="#f4f6f8" stroke="#e4e9ee"/>
  <circle cx="84" cy="149" r="6" fill="none" stroke="#aab3bc" stroke-width="1.6"/>
  <line x1="88" y1="153" x2="92" y2="157" stroke="#aab3bc" stroke-width="1.6" stroke-linecap="round"/>
  <text x="100" y="153" font-size="12.5" fill="#aab3bc">Search databases &amp; objects</text>

  <!-- connection items -->
  <g font-size="13.5" fill="#27313c">
    <!-- selected -->
    <rect x="52" y="178" width="246" height="34" rx="8" fill="#eaf6f3"/>
    <g transform="translate(70,188)"><ellipse cx="8" cy="3" rx="8" ry="2.6" fill="none" stroke="#1f9e8f" stroke-width="1.6"/><path d="M0 3 v9 c0 1.5 3.6 2.6 8 2.6 s8 -1.1 8 -2.6 v-9" fill="none" stroke="#1f9e8f" stroke-width="1.6"/><path d="M0 8 c0 1.5 3.6 2.6 8 2.6 s8 -1.1 8 -2.6" fill="none" stroke="#1f9e8f" stroke-width="1.6"/></g>
    <text x="98" y="200" font-weight="600">DBDevMYPROJEK3</text>

    <g transform="translate(70,224)"><ellipse cx="8" cy="3" rx="8" ry="2.6" fill="none" stroke="#1f9e8f" stroke-width="1.6"/><path d="M0 3 v9 c0 1.5 3.6 2.6 8 2.6 s8 -1.1 8 -2.6 v-9" fill="none" stroke="#1f9e8f" stroke-width="1.6"/></g>
    <text x="98" y="236">DBDevMYPROJEK3_STG</text>

    <g transform="translate(70,260)"><rect x="0" y="0" width="16" height="13" rx="2.5" fill="none" stroke="#5fbf57" stroke-width="1.6"/><rect x="2" y="2" width="20" height="16" rx="2.5" fill="#fff" stroke="#5fbf57" stroke-width="1.6"/><path d="M6 7 l4 3 l-4 3" fill="none" stroke="#5fbf57" stroke-width="1.6" stroke-linecap="round" stroke-linejoin="round"/></g>
    <text x="98" y="272">prod-web · deploy@10.0.0.5</text>

    <g transform="translate(70,296)"><path d="M0 17 h16 a1.6 1.6 0 0 0 1.6 -1.6 v-9 a1.6 1.6 0 0 0 -1.6 -1.6 h-7 l-1.6 -1.8 h-5.8 a1.6 1.6 0 0 0 -1.6 1.6 v11Z" fill="none" stroke="#4ba4e3" stroke-width="1.5"/></g>
    <text x="98" y="308">backups (SFTP)</text>

    <g transform="translate(70,332)"><path d="M11 0 l4 4 l-4 4 M15 4 H1 M5 18 l-4 -4 l4 -4 M1 14 h14" fill="none" stroke="#e0992e" stroke-width="1.6" stroke-linecap="round" stroke-linejoin="round"/></g>
    <text x="98" y="344">db-tunnel → 3307</text>

    <g fill="#3c4651">
      <text x="98" y="380">cmspro</text>
      <text x="98" y="416">evoting</text>
      <text x="98" y="452">inbois</text>
      <text x="98" y="488">inceif_pro</text>
    </g>
    <g transform="translate(70,368)" fill="none" stroke="#1f9e8f" stroke-width="1.5"><ellipse cx="8" cy="3" rx="8" ry="2.6"/><path d="M0 3 v9 c0 1.5 3.6 2.6 8 2.6 s8 -1.1 8 -2.6 v-9"/></g>
    <g transform="translate(70,404)" fill="none" stroke="#1f9e8f" stroke-width="1.5"><ellipse cx="8" cy="3" rx="8" ry="2.6"/><path d="M0 3 v9 c0 1.5 3.6 2.6 8 2.6 s8 -1.1 8 -2.6 v-9"/></g>
    <g transform="translate(70,440)" fill="none" stroke="#1f9e8f" stroke-width="1.5"><ellipse cx="8" cy="3" rx="8" ry="2.6"/><path d="M0 3 v9 c0 1.5 3.6 2.6 8 2.6 s8 -1.1 8 -2.6 v-9"/></g>
    <g transform="translate(70,476)" fill="none" stroke="#1f9e8f" stroke-width="1.5"><ellipse cx="8" cy="3" rx="8" ry="2.6"/><path d="M0 3 v9 c0 1.5 3.6 2.6 8 2.6 s8 -1.1 8 -2.6 v-9"/></g>
  </g>

  <!-- Tab bar -->
  <rect x="310" y="85" width="930" height="40" fill="#fbfcfd"/>
  <line x1="310" y1="125" x2="1240" y2="125" stroke="#e6ebf0"/>
  <rect x="326" y="93" width="120" height="32" rx="8" fill="#ffffff" stroke="#e0e6eb"/>
  <path d="M340 104 l-4 5 l4 5 M356 104 l4 5 l-4 5" fill="none" stroke="#1f9e8f" stroke-width="1.6" stroke-linecap="round" stroke-linejoin="round"/>
  <text x="366" y="114" font-size="12.5" font-weight="600" fill="#1d2530">Query 1</text>
  <rect x="326" y="121" width="120" height="3" rx="1.5" fill="#1f9e8f"/>
  <text x="462" y="114" font-size="18" fill="#9aa4ae">+</text>

  <!-- pane header toolbar (right-aligned icons incl. maximize) -->
  <g stroke="#aab3bc" stroke-width="1.7" fill="none" stroke-linecap="round" stroke-linejoin="round">
    <path d="M1086 99 v7 M1082.6 100.6 a6.5 6.5 0 1 0 6.8 0"/>            <!-- power -->
    <rect x="1108" y="98" width="14" height="14" rx="2.5"/><path d="M1115 98 v14"/> <!-- split -->
    <path d="M1138 100 h-3 a2 2 0 0 0 -2 2 v3 M1152 102 v-2 a2 2 0 0 0 -2 -2 h-3 M1135 110 h-2  M1133 105 v5 a2 2 0 0 0 2 2 h3 M1147 112 h3 a2 2 0 0 0 2 -2 v-3"/> <!-- maximize -->
    <path d="M1162 99 h6 v6 M1168 99 l-7 7 M1166 104 v4 a1.6 1.6 0 0 1 -1.6 1.6 H1160 a1.6 1.6 0 0 1 -1.6 -1.6 V102 a1.6 1.6 0 0 1 1.6 -1.6 h4"/> <!-- detach -->
    <path d="M1188 99 l10 10 M1198 99 l-10 10"/>                          <!-- close -->
  </g>

  <!-- SQL editor -->
  <rect x="326" y="142" width="898" height="150" rx="10" fill="#ffffff" stroke="#e2e7ec"/>
  <rect x="326" y="142" width="44" height="150" rx="10" fill="#f5f7f9"/>
  <rect x="360" y="142" width="10" height="150" fill="#f5f7f9"/>
  <g font-family="ui-monospace, SFMono-Regular, Menlo, monospace" font-size="13">
    <g fill="#b2bcc6" text-anchor="end">
      <text x="358" y="170">1</text><text x="358" y="192">2</text><text x="358" y="214">3</text><text x="358" y="236">4</text>
    </g>
    <text x="384" y="170"><tspan fill="#b1308a" font-weight="600">SELECT</tspan><tspan fill="#27313c"> id, name, email, status, created_at</tspan></text>
    <text x="384" y="192"><tspan fill="#b1308a" font-weight="600">FROM</tspan><tspan fill="#27313c"> users</tspan></text>
    <text x="384" y="214"><tspan fill="#b1308a" font-weight="600">WHERE</tspan><tspan fill="#27313c"> status = </tspan><tspan fill="#1f9e8f">'active'</tspan></text>
    <text x="384" y="236"><tspan fill="#b1308a" font-weight="600">ORDER BY</tspan><tspan fill="#27313c"> created_at </tspan><tspan fill="#b1308a" font-weight="600">DESC</tspan><tspan fill="#27313c">;</tspan></text>
  </g>

  <!-- action buttons -->
  <rect x="326" y="306" width="92" height="36" rx="9" fill="#1f9e8f"/>
  <path d="M349 318 l9 6 l-9 6 Z" fill="#ffffff"/>
  <text x="368" y="329" font-size="13.5" font-weight="600" fill="#ffffff">Run</text>
  <rect x="428" y="306" width="96" height="36" rx="9" fill="#fff" stroke="#dde3e8"/>
  <text x="448" y="329" font-size="13" fill="#52606b">Beautify</text>
  <rect x="534" y="306" width="88" height="36" rx="9" fill="#fff" stroke="#dde3e8"/>
  <text x="552" y="329" font-size="13" fill="#52606b">Minify</text>
  <rect x="632" y="306" width="80" height="36" rx="9" fill="#fff" stroke="#dde3e8"/>
  <text x="652" y="329" font-size="13" fill="#52606b">Save…</text>
  <text x="1110" y="329" font-size="13" fill="#8a949f">Limit</text>
  <rect x="1148" y="307" width="76" height="34" rx="9" fill="#fff" stroke="#dde3e8"/>
  <text x="1162" y="329" font-size="13" fill="#27313c">1000</text>

  <!-- results grid -->
  <rect x="326" y="360" width="898" height="392" rx="10" fill="#ffffff" stroke="#e2e7ec"/>
  <rect x="326" y="360" width="898" height="36" rx="10" fill="#f5f7f9"/>
  <rect x="326" y="386" width="898" height="10" fill="#f5f7f9"/>
  <g font-size="12.5" font-weight="700" fill="#5c6772">
    <text x="346" y="383">id</text><text x="430" y="383">name</text><text x="690" y="383">email</text><text x="980" y="383">status</text><text x="1110" y="383">created_at</text>
  </g>
  <line x1="326" y1="396" x2="1224" y2="396" stroke="#eceff2"/>
  <g font-size="12.5" fill="#39424d">
    <text x="346" y="421">1</text><text x="430" y="421">Aisyah Rahman</text><text x="690" y="421">aisyah@example.com</text>
    <text x="346" y="453">2</text><text x="430" y="453">Daniel Tan</text><text x="690" y="453">daniel.tan@example.com</text>
    <text x="346" y="485">3</text><text x="430" y="485">Nurul Huda</text><text x="690" y="485">nurul@example.com</text>
    <text x="346" y="517">4</text><text x="430" y="517">Faiz Karim</text><text x="690" y="517">faiz.karim@example.com</text>
    <text x="346" y="549">5</text><text x="430" y="549">Mei Ling</text><text x="690" y="549">meiling@example.com</text>
  </g>
  <g font-size="11.5" font-weight="600">
    <rect x="978" y="409" width="52" height="20" rx="10" fill="#e7f6ee"/><text x="989" y="423" fill="#2f9e54">active</text>
    <rect x="978" y="441" width="52" height="20" rx="10" fill="#e7f6ee"/><text x="989" y="455" fill="#2f9e54">active</text>
    <rect x="978" y="473" width="52" height="20" rx="10" fill="#e7f6ee"/><text x="989" y="487" fill="#2f9e54">active</text>
    <rect x="978" y="505" width="52" height="20" rx="10" fill="#e7f6ee"/><text x="989" y="519" fill="#2f9e54">active</text>
    <rect x="978" y="537" width="52" height="20" rx="10" fill="#e7f6ee"/><text x="989" y="551" fill="#2f9e54">active</text>
  </g>
  <g font-size="12.5" fill="#8a949f">
    <text x="1110" y="421">2026-06-19</text><text x="1110" y="453">2026-06-18</text><text x="1110" y="485">2026-06-18</text><text x="1110" y="517">2026-06-17</text><text x="1110" y="549">2026-06-15</text>
  </g>
  <line x1="326" y1="437" x2="1224" y2="437" stroke="#f1f3f5"/>
  <line x1="326" y1="469" x2="1224" y2="469" stroke="#f1f3f5"/>
  <line x1="326" y1="501" x2="1224" y2="501" stroke="#f1f3f5"/>
  <line x1="326" y1="533" x2="1224" y2="533" stroke="#f1f3f5"/>
</svg>
