<svg width="1280" height="800" viewBox="0 0 1280 800" xmlns="http://www.w3.org/2000/svg" font-family="-apple-system, Segoe UI, Roboto, Helvetica, Arial, sans-serif">
  <defs>
    <filter id="shadow" x="-5%" y="-5%" width="110%" height="115%">
      <feDropShadow dx="0" dy="10" stdDeviation="18" flood-color="#0b1b2b" flood-opacity="0.18"/>
    </filter>
    <linearGradient id="logo" x1="0" y1="0" x2="0" y2="1"><stop offset="0" stop-color="#2d323a"/><stop offset="1" stop-color="#15181c"/></linearGradient>
  </defs>
  <rect width="1280" height="800" fill="#e9edf1"/>
  <g filter="url(#shadow)"><rect x="40" y="32" width="1200" height="736" rx="16" fill="#ffffff" stroke="#dfe5ea"/></g>

  <!-- Top bar -->
  <rect x="40" y="32" width="1200" height="52" rx="16" fill="#f7f9fb"/><rect x="40" y="68" width="1200" height="16" fill="#f7f9fb"/>
  <line x1="40" y1="84" x2="1240" y2="84" stroke="#e6ebf0"/>
  <circle cx="64" cy="58" r="6" fill="#ec6a5e"/><circle cx="84" cy="58" r="6" fill="#f3bf4f"/><circle cx="104" cy="58" r="6" fill="#61c655"/>
  <rect x="132" y="44" width="28" height="28" rx="7" fill="url(#logo)"/>
  <path d="M141 51 L150 58 L141 65" fill="none" stroke="#5fbf57" stroke-width="2.6" stroke-linecap="round" stroke-linejoin="round"/>
  <rect x="151" y="60" width="7" height="3" rx="1.5" fill="#4ba4e3"/>
  <text x="170" y="63" font-size="16" font-weight="700" fill="#1d2530">BalauDeck</text>
  <text x="270" y="63" font-size="12.5" fill="#9aa4ae">SSH · SFTP · Tunnel · DB</text>

  <!-- Sidebar -->
  <rect x="41" y="85" width="268" height="682" fill="#ffffff"/><line x1="309" y1="85" x2="309" y2="767" stroke="#eceff2"/>
  <text x="64" y="120" font-size="12.5" font-weight="700" fill="#7c8893" letter-spacing="0.4">CONNECTIONS</text>
  <g stroke="#9aa4ae" stroke-width="1.7" fill="none" stroke-linecap="round" stroke-linejoin="round">
    <path d="M250 110 a8 8 0 1 1 -2.3 -5.6 M250 105 v4 h-4"/>
    <path d="M268 116 h16 a1.6 1.6 0 0 0 1.6 -1.6 v-7 a1.6 1.6 0 0 0 -1.6 -1.6 h-6.3 l-1.5 -1.7 h-3.2 a1.6 1.6 0 0 0 -1.6 1.6 v9.3 a1.6 1.6 0 0 0 1.6 1.6Z"/>
    <path d="M292 106 h12 M298 100 v12"/>
  </g>
  <rect x="64" y="132" width="222" height="34" rx="9" fill="#f4f6f8" stroke="#e4e9ee"/>
  <circle cx="84" cy="149" r="6" fill="none" stroke="#aab3bc" stroke-width="1.6"/><line x1="88" y1="153" x2="92" y2="157" stroke="#aab3bc" stroke-width="1.6" stroke-linecap="round"/>
  <text x="100" y="153" font-size="12.5" fill="#aab3bc">Search databases &amp; objects</text>

  <g font-size="13.5" fill="#27313c">
    <g transform="translate(70,188)" fill="none" stroke="#1f9e8f" stroke-width="1.5"><ellipse cx="8" cy="3" rx="8" ry="2.6"/><path d="M0 3 v9 c0 1.5 3.6 2.6 8 2.6 s8 -1.1 8 -2.6 v-9"/></g>
    <text x="98" y="200">sample_db</text>
    <g transform="translate(70,224)" fill="none" stroke="#1f9e8f" stroke-width="1.5"><ellipse cx="8" cy="3" rx="8" ry="2.6"/><path d="M0 3 v9 c0 1.5 3.6 2.6 8 2.6 s8 -1.1 8 -2.6 v-9"/></g>
    <text x="98" y="236">sample_db_staging</text>

    <!-- selected: SSH host -->
    <rect x="52" y="250" width="246" height="34" rx="8" fill="#eaf6ef"/>
    <g transform="translate(70,260)"><rect x="0" y="0" width="16" height="13" rx="2.5" fill="none" stroke="#5fbf57" stroke-width="1.7"/><rect x="2" y="2" width="20" height="16" rx="2.5" fill="#fff" stroke="#5fbf57" stroke-width="1.7"/><path d="M6 7 l4 3 l-4 3" fill="none" stroke="#5fbf57" stroke-width="1.7" stroke-linecap="round" stroke-linejoin="round"/></g>
    <text x="98" y="272" font-weight="600">sample-server · user@host</text>

    <g transform="translate(70,296)"><path d="M0 17 h16 a1.6 1.6 0 0 0 1.6 -1.6 v-9 a1.6 1.6 0 0 0 -1.6 -1.6 h-7 l-1.6 -1.8 h-5.8 a1.6 1.6 0 0 0 -1.6 1.6 v11Z" fill="none" stroke="#4ba4e3" stroke-width="1.5"/></g>
    <text x="98" y="308">sample-files (SFTP)</text>
    <g transform="translate(70,332)"><path d="M11 0 l4 4 l-4 4 M15 4 H1 M5 18 l-4 -4 l4 -4 M1 14 h14" fill="none" stroke="#e0992e" stroke-width="1.6" stroke-linecap="round" stroke-linejoin="round"/></g>
    <text x="98" y="344">sample-tunnel → 3307</text>
    <g fill="#3c4651"><text x="98" y="380">sample_app</text><text x="98" y="416">sample_shop</text><text x="98" y="452">sample_blog</text></g>
    <g fill="none" stroke="#1f9e8f" stroke-width="1.5">
      <g transform="translate(70,368)"><ellipse cx="8" cy="3" rx="8" ry="2.6"/><path d="M0 3 v9 c0 1.5 3.6 2.6 8 2.6 s8 -1.1 8 -2.6 v-9"/></g>
      <g transform="translate(70,404)"><ellipse cx="8" cy="3" rx="8" ry="2.6"/><path d="M0 3 v9 c0 1.5 3.6 2.6 8 2.6 s8 -1.1 8 -2.6 v-9"/></g>
      <g transform="translate(70,440)"><ellipse cx="8" cy="3" rx="8" ry="2.6"/><path d="M0 3 v9 c0 1.5 3.6 2.6 8 2.6 s8 -1.1 8 -2.6 v-9"/></g>
    </g>
  </g>

  <!-- Tab bar -->
  <rect x="310" y="85" width="930" height="40" fill="#fbfcfd"/><line x1="310" y1="125" x2="1240" y2="125" stroke="#e6ebf0"/>
  <rect x="326" y="93" width="208" height="32" rx="8" fill="#ffffff" stroke="#e0e6eb"/>
  <circle cx="345" cy="109" r="4" fill="#37c463"/>
  <text x="356" y="114" font-size="12.5" font-weight="600" fill="#1d2530">user@sample-server</text>
  <rect x="326" y="121" width="208" height="3" rx="1.5" fill="#1f9e8f"/>
  <text x="550" y="114" font-size="18" fill="#9aa4ae">+</text>

  <!-- pane toolbar -->
  <g stroke="#aab3bc" stroke-width="1.7" fill="none" stroke-linecap="round" stroke-linejoin="round">
    <path d="M1086 99 v7 M1082.6 100.6 a6.5 6.5 0 1 0 6.8 0"/>
    <rect x="1108" y="98" width="14" height="14" rx="2.5"/><path d="M1115 98 v14"/>
    <path d="M1138 100 h-3 a2 2 0 0 0 -2 2 v3 M1152 102 v-2 a2 2 0 0 0 -2 -2 h-3 M1133 105 v5 a2 2 0 0 0 2 2 h3 M1147 112 h3 a2 2 0 0 0 2 -2 v-3"/>
    <path d="M1162 99 h6 v6 M1168 99 l-7 7 M1166 104 v4 a1.6 1.6 0 0 1 -1.6 1.6 H1160 a1.6 1.6 0 0 1 -1.6 -1.6 V102 a1.6 1.6 0 0 1 1.6 -1.6 h4"/>
    <path d="M1188 99 l10 10 M1198 99 l-10 10"/>
  </g>

  <!-- Terminal -->
  <rect x="326" y="142" width="898" height="610" rx="12" fill="#11161c"/>
  <g font-family="ui-monospace, SFMono-Regular, Menlo, monospace" font-size="14">
    <text x="350" y="180"><tspan fill="#5fbf57">deploy@sample-server</tspan><tspan fill="#7f8b97">:</tspan><tspan fill="#4ba4e3">~</tspan><tspan fill="#cdd6e0">$ uname -srm</tspan></text>
    <text x="350" y="206" fill="#c3ccd6">Linux 6.1.0-arm64 aarch64</text>
    <text x="350" y="240"><tspan fill="#5fbf57">deploy@sample-server</tspan><tspan fill="#7f8b97">:</tspan><tspan fill="#4ba4e3">~</tspan><tspan fill="#cdd6e0">$ docker ps --format '{{.Names}}'</tspan></text>
    <text x="350" y="266" fill="#c3ccd6">web</text>
    <text x="350" y="290" fill="#c3ccd6">api</text>
    <text x="350" y="314" fill="#c3ccd6">mariadb</text>
    <text x="350" y="348"><tspan fill="#5fbf57">deploy@sample-server</tspan><tspan fill="#7f8b97">:</tspan><tspan fill="#4ba4e3">~</tspan><tspan fill="#cdd6e0">$ df -h / | tail -1</tspan></text>
    <text x="350" y="374" fill="#c3ccd6">/dev/root        58G   21G   35G  38% /</text>
    <text x="350" y="408"><tspan fill="#5fbf57">deploy@sample-server</tspan><tspan fill="#7f8b97">:</tspan><tspan fill="#4ba4e3">~</tspan><tspan fill="#cdd6e0">$ </tspan></text>
    <rect x="445" y="397" width="9" height="16" fill="#5fbf57"/>
  </g>
  <!-- iPad keyboard accessory bar -->
  <rect x="326" y="708" width="898" height="44" rx="0" fill="#1b222b"/>
  <rect x="326" y="708" width="898" height="2" fill="#262f3a"/>
  <g font-family="ui-monospace, monospace" font-size="13" fill="#aeb8c4">
    <rect x="346" y="718" width="44" height="24" rx="6" fill="#27313d"/><text x="356" y="734">esc</text>
    <rect x="398" y="718" width="40" height="24" rx="6" fill="#27313d"/><text x="410" y="734">tab</text>
    <rect x="446" y="718" width="40" height="24" rx="6" fill="#27313d"/><text x="457" y="734">ctrl</text>
    <rect x="494" y="718" width="34" height="24" rx="6" fill="#27313d"/><text x="505" y="734">/</text>
    <rect x="536" y="718" width="34" height="24" rx="6" fill="#27313d"/><text x="547" y="734">|</text>
    <rect x="578" y="718" width="34" height="24" rx="6" fill="#27313d"/><text x="588" y="734">~</text>
    <rect x="1150" y="718" width="34" height="24" rx="6" fill="#27313d"/><text x="1160" y="734">↑</text>
    <rect x="1188" y="718" width="34" height="24" rx="6" fill="#27313d"/><text x="1198" y="734">↓</text>
  </g>
</svg>
