<svg width="1280" height="800" viewBox="0 0 1280 800" xmlns="http://www.w3.org/2000/svg" font-family="-apple-system, Segoe UI, Roboto, Helvetica, Arial, sans-serif">
  <defs>
    <filter id="shadow" x="-5%" y="-5%" width="110%" height="115%"><feDropShadow dx="0" dy="10" stdDeviation="18" flood-color="#0b1b2b" flood-opacity="0.18"/></filter>
    <linearGradient id="logo" x1="0" y1="0" x2="0" y2="1"><stop offset="0" stop-color="#2d323a"/><stop offset="1" stop-color="#15181c"/></linearGradient>
  </defs>
  <rect width="1280" height="800" fill="#e9edf1"/>
  <g filter="url(#shadow)"><rect x="40" y="32" width="1200" height="736" rx="16" fill="#ffffff" stroke="#dfe5ea"/></g>
  <rect x="40" y="32" width="1200" height="52" rx="16" fill="#f7f9fb"/><rect x="40" y="68" width="1200" height="16" fill="#f7f9fb"/>
  <line x1="40" y1="84" x2="1240" y2="84" stroke="#e6ebf0"/>
  <circle cx="64" cy="58" r="6" fill="#ec6a5e"/><circle cx="84" cy="58" r="6" fill="#f3bf4f"/><circle cx="104" cy="58" r="6" fill="#61c655"/>
  <rect x="132" y="44" width="28" height="28" rx="7" fill="url(#logo)"/>
  <path d="M141 51 L150 58 L141 65" fill="none" stroke="#5fbf57" stroke-width="2.6" stroke-linecap="round" stroke-linejoin="round"/>
  <rect x="151" y="60" width="7" height="3" rx="1.5" fill="#4ba4e3"/>
  <text x="170" y="63" font-size="16" font-weight="700" fill="#1d2530">BalauDeck</text>
  <text x="270" y="63" font-size="12.5" fill="#9aa4ae">SSH · SFTP · Tunnel · DB</text>

  <!-- Sidebar -->
  <rect x="41" y="85" width="268" height="682" fill="#ffffff"/><line x1="309" y1="85" x2="309" y2="767" stroke="#eceff2"/>
  <text x="64" y="120" font-size="12.5" font-weight="700" fill="#7c8893" letter-spacing="0.4">CONNECTIONS</text>
  <g stroke="#9aa4ae" stroke-width="1.7" fill="none" stroke-linecap="round" stroke-linejoin="round">
    <path d="M250 110 a8 8 0 1 1 -2.3 -5.6 M250 105 v4 h-4"/>
    <path d="M268 116 h16 a1.6 1.6 0 0 0 1.6 -1.6 v-7 a1.6 1.6 0 0 0 -1.6 -1.6 h-6.3 l-1.5 -1.7 h-3.2 a1.6 1.6 0 0 0 -1.6 1.6 v9.3 a1.6 1.6 0 0 0 1.6 1.6Z"/>
    <path d="M292 106 h12 M298 100 v12"/>
  </g>
  <rect x="64" y="132" width="222" height="34" rx="9" fill="#f4f6f8" stroke="#e4e9ee"/>
  <circle cx="84" cy="149" r="6" fill="none" stroke="#aab3bc" stroke-width="1.6"/><line x1="88" y1="153" x2="92" y2="157" stroke="#aab3bc" stroke-width="1.6" stroke-linecap="round"/>
  <text x="100" y="153" font-size="12.5" fill="#aab3bc">Search databases &amp; objects</text>
  <g font-size="13.5" fill="#27313c">
    <g transform="translate(70,188)" fill="none" stroke="#1f9e8f" stroke-width="1.5"><ellipse cx="8" cy="3" rx="8" ry="2.6"/><path d="M0 3 v9 c0 1.5 3.6 2.6 8 2.6 s8 -1.1 8 -2.6 v-9"/></g><text x="98" y="200">sample_db</text>
    <g transform="translate(70,224)" fill="none" stroke="#1f9e8f" stroke-width="1.5"><ellipse cx="8" cy="3" rx="8" ry="2.6"/><path d="M0 3 v9 c0 1.5 3.6 2.6 8 2.6 s8 -1.1 8 -2.6 v-9"/></g><text x="98" y="236">sample_db_staging</text>
    <g transform="translate(70,260)"><rect x="0" y="0" width="16" height="13" rx="2.5" fill="none" stroke="#5fbf57" stroke-width="1.6"/><rect x="2" y="2" width="20" height="16" rx="2.5" fill="#fff" stroke="#5fbf57" stroke-width="1.6"/><path d="M6 7 l4 3 l-4 3" fill="none" stroke="#5fbf57" stroke-width="1.6" stroke-linecap="round" stroke-linejoin="round"/></g><text x="98" y="272">sample-server · user@host</text>
    <!-- selected: SFTP -->
    <rect x="52" y="286" width="246" height="34" rx="8" fill="#eaf2fb"/>
    <g transform="translate(70,296)"><path d="M0 17 h16 a1.6 1.6 0 0 0 1.6 -1.6 v-9 a1.6 1.6 0 0 0 -1.6 -1.6 h-7 l-1.6 -1.8 h-5.8 a1.6 1.6 0 0 0 -1.6 1.6 v11Z" fill="none" stroke="#4ba4e3" stroke-width="1.7"/></g>
    <text x="98" y="308" font-weight="600">sample-files (SFTP)</text>
    <g transform="translate(70,332)"><path d="M11 0 l4 4 l-4 4 M15 4 H1 M5 18 l-4 -4 l4 -4 M1 14 h14" fill="none" stroke="#e0992e" stroke-width="1.6" stroke-linecap="round" stroke-linejoin="round"/></g><text x="98" y="344">sample-tunnel → 3307</text>
    <g fill="#3c4651"><text x="98" y="380">sample_app</text><text x="98" y="416">sample_shop</text><text x="98" y="452">sample_blog</text></g>
    <g fill="none" stroke="#1f9e8f" stroke-width="1.5">
      <g transform="translate(70,368)"><ellipse cx="8" cy="3" rx="8" ry="2.6"/><path d="M0 3 v9 c0 1.5 3.6 2.6 8 2.6 s8 -1.1 8 -2.6 v-9"/></g>
      <g transform="translate(70,404)"><ellipse cx="8" cy="3" rx="8" ry="2.6"/><path d="M0 3 v9 c0 1.5 3.6 2.6 8 2.6 s8 -1.1 8 -2.6 v-9"/></g>
      <g transform="translate(70,440)"><ellipse cx="8" cy="3" rx="8" ry="2.6"/><path d="M0 3 v9 c0 1.5 3.6 2.6 8 2.6 s8 -1.1 8 -2.6 v-9"/></g>
    </g>
  </g>

  <!-- Tab -->
  <rect x="310" y="85" width="930" height="40" fill="#fbfcfd"/><line x1="310" y1="125" x2="1240" y2="125" stroke="#e6ebf0"/>
  <rect x="326" y="93" width="208" height="32" rx="8" fill="#ffffff" stroke="#e0e6eb"/>
  <circle cx="345" cy="109" r="4" fill="#37c463"/>
  <text x="356" y="114" font-size="12.5" font-weight="600" fill="#1d2530">user@sample-server</text>
  <rect x="326" y="121" width="208" height="3" rx="1.5" fill="#4ba4e3"/>
  <text x="550" y="114" font-size="18" fill="#9aa4ae">+</text>

  <!-- path bar + actions -->
  <rect x="326" y="142" width="898" height="44" rx="10" fill="#f5f7f9" stroke="#e6ebf0"/>
  <text x="346" y="169" font-size="13.5" fill="#52606b"><tspan fill="#1f9e8f">/</tspan> var <tspan fill="#c2cad2">›</tspan> www <tspan fill="#c2cad2">›</tspan> <tspan fill="#1d2530" font-weight="600">html</tspan></text>
  <g stroke="#7c8893" stroke-width="1.7" fill="none" stroke-linecap="round" stroke-linejoin="round">
    <path d="M1096 158 a8 8 0 1 0 2.6 -5.9 M1098 153 h-4 v-4"/>                              <!-- refresh -->
    <path d="M1132 170 v-12 M1127 163 l5 -5 l5 5 M1124 172 h16"/>                            <!-- upload -->
    <path d="M1168 158 v12 M1163 165 l5 5 l5 -5 M1160 172 h16"/>                             <!-- download -->
    <path d="M1196 172 h16 a1.6 1.6 0 0 0 1.6 -1.6 v-8 a1.6 1.6 0 0 0 -1.6 -1.6 h-7 l-1.6 -1.8 h-5.8 a1.6 1.6 0 0 0 -1.6 1.6 v10Z M1204 161 v6 M1201 164 h6"/> <!-- new folder -->
  </g>

  <!-- file table -->
  <rect x="326" y="198" width="898" height="554" rx="10" fill="#ffffff" stroke="#e2e7ec"/>
  <rect x="326" y="198" width="898" height="34" rx="10" fill="#f5f7f9"/><rect x="326" y="222" width="898" height="10" fill="#f5f7f9"/>
  <g font-size="12.5" font-weight="700" fill="#5c6772"><text x="384" y="220">Name</text><text x="820" y="220">Size</text><text x="940" y="220">Modified</text><text x="1110" y="220">Perms</text></g>
  <line x1="326" y1="232" x2="1224" y2="232" stroke="#eceff2"/>

  <g>
    <!-- folder rows -->
    <g transform="translate(352,250)"><path d="M0 14 h14 a1.5 1.5 0 0 0 1.5 -1.5 v-7.5 a1.5 1.5 0 0 0 -1.5 -1.5 h-6 l-1.4 -1.6 h-5 a1.5 1.5 0 0 0 -1.5 1.5 v9Z" fill="#cfe6fb" stroke="#4ba4e3" stroke-width="1.3"/></g>
    <text x="384" y="262" font-size="13.5" font-weight="600" fill="#27313c">assets</text>
    <text x="1110" y="262" font-size="12.5" font-family="ui-monospace,monospace" fill="#8a949f">drwxr-xr-x</text>

    <g transform="translate(352,286)"><path d="M0 14 h14 a1.5 1.5 0 0 0 1.5 -1.5 v-7.5 a1.5 1.5 0 0 0 -1.5 -1.5 h-6 l-1.4 -1.6 h-5 a1.5 1.5 0 0 0 -1.5 1.5 v9Z" fill="#cfe6fb" stroke="#4ba4e3" stroke-width="1.3"/></g>
    <text x="384" y="298" font-size="13.5" font-weight="600" fill="#27313c">uploads</text>
    <text x="1110" y="298" font-size="12.5" font-family="ui-monospace,monospace" fill="#8a949f">drwxr-xr-x</text>

    <!-- file rows -->
    <g font-size="13.5" fill="#39424d">
      <g transform="translate(352,322)"><path d="M2 0 h7 l5 5 v11 a1.4 1.4 0 0 1 -1.4 1.4 H2 a1.4 1.4 0 0 1 -1.4 -1.4 V1.4 A1.4 1.4 0 0 1 2 0Z" fill="#fff" stroke="#9aa4ae" stroke-width="1.3"/><path d="M9 0 v5 h5" fill="none" stroke="#9aa4ae" stroke-width="1.3"/></g>
      <text x="384" y="334">index.php</text><text x="820" y="334" font-size="12.5" fill="#6b7681">12 KB</text>
      <g transform="translate(352,358)"><path d="M2 0 h7 l5 5 v11 a1.4 1.4 0 0 1 -1.4 1.4 H2 a1.4 1.4 0 0 1 -1.4 -1.4 V1.4 A1.4 1.4 0 0 1 2 0Z" fill="#fff" stroke="#9aa4ae" stroke-width="1.3"/><path d="M9 0 v5 h5" fill="none" stroke="#9aa4ae" stroke-width="1.3"/></g>
      <text x="384" y="370">.env</text><text x="820" y="370" font-size="12.5" fill="#6b7681">1 KB</text>
      <g transform="translate(352,394)"><path d="M2 0 h7 l5 5 v11 a1.4 1.4 0 0 1 -1.4 1.4 H2 a1.4 1.4 0 0 1 -1.4 -1.4 V1.4 A1.4 1.4 0 0 1 2 0Z" fill="#fff" stroke="#9aa4ae" stroke-width="1.3"/><path d="M9 0 v5 h5" fill="none" stroke="#9aa4ae" stroke-width="1.3"/></g>
      <text x="384" y="406">composer.json</text><text x="820" y="406" font-size="12.5" fill="#6b7681">3 KB</text>
      <g transform="translate(352,430)"><path d="M2 0 h7 l5 5 v11 a1.4 1.4 0 0 1 -1.4 1.4 H2 a1.4 1.4 0 0 1 -1.4 -1.4 V1.4 A1.4 1.4 0 0 1 2 0Z" fill="#fff" stroke="#9aa4ae" stroke-width="1.3"/><path d="M9 0 v5 h5" fill="none" stroke="#9aa4ae" stroke-width="1.3"/></g>
      <text x="384" y="442">app.log</text><text x="820" y="442" font-size="12.5" fill="#6b7681">248 KB</text>
      <g transform="translate(352,466)"><path d="M2 0 h7 l5 5 v11 a1.4 1.4 0 0 1 -1.4 1.4 H2 a1.4 1.4 0 0 1 -1.4 -1.4 V1.4 A1.4 1.4 0 0 1 2 0Z" fill="#fff" stroke="#9aa4ae" stroke-width="1.3"/><path d="M9 0 v5 h5" fill="none" stroke="#9aa4ae" stroke-width="1.3"/></g>
      <text x="384" y="478">robots.txt</text><text x="820" y="478" font-size="12.5" fill="#6b7681">64 B</text>
    </g>
    <g font-size="12.5" font-family="ui-monospace,monospace" fill="#8a949f">
      <text x="940" y="334">2026-06-18</text><text x="1110" y="334">rw-r--r--</text>
      <text x="940" y="370">2026-06-10</text><text x="1110" y="370">rw-------</text>
      <text x="940" y="406">2026-06-12</text><text x="1110" y="406">rw-r--r--</text>
      <text x="940" y="442">2026-06-19</text><text x="1110" y="442">rw-r--r--</text>
      <text x="940" y="478">2026-05-30</text><text x="1110" y="478">rw-r--r--</text>
    </g>
    <g stroke="#f1f3f5"><line x1="326" y1="272" x2="1224" y2="272"/><line x1="326" y1="308" x2="1224" y2="308"/><line x1="326" y1="344" x2="1224" y2="344"/><line x1="326" y1="380" x2="1224" y2="380"/><line x1="326" y1="416" x2="1224" y2="416"/><line x1="326" y1="452" x2="1224" y2="452"/></g>
  </g>
</svg>
