<svg width="1280" height="800" viewBox="0 0 1280 800" xmlns="http://www.w3.org/2000/svg" font-family="-apple-system, Segoe UI, Roboto, Helvetica, Arial, sans-serif">
  <defs>
    <filter id="shadow" x="-5%" y="-5%" width="110%" height="115%"><feDropShadow dx="0" dy="10" stdDeviation="18" flood-color="#0b1b2b" flood-opacity="0.18"/></filter>
    <linearGradient id="logo" x1="0" y1="0" x2="0" y2="1"><stop offset="0" stop-color="#2d323a"/><stop offset="1" stop-color="#15181c"/></linearGradient>
  </defs>
  <rect width="1280" height="800" fill="#e9edf1"/>
  <g filter="url(#shadow)"><rect x="40" y="32" width="1200" height="736" rx="16" fill="#ffffff" stroke="#dfe5ea"/></g>
  <rect x="40" y="32" width="1200" height="52" rx="16" fill="#f7f9fb"/><rect x="40" y="68" width="1200" height="16" fill="#f7f9fb"/>
  <line x1="40" y1="84" x2="1240" y2="84" stroke="#e6ebf0"/>
  <circle cx="64" cy="58" r="6" fill="#ec6a5e"/><circle cx="84" cy="58" r="6" fill="#f3bf4f"/><circle cx="104" cy="58" r="6" fill="#61c655"/>
  <rect x="132" y="44" width="28" height="28" rx="7" fill="url(#logo)"/>
  <path d="M141 51 L150 58 L141 65" fill="none" stroke="#5fbf57" stroke-width="2.6" stroke-linecap="round" stroke-linejoin="round"/>
  <rect x="151" y="60" width="7" height="3" rx="1.5" fill="#4ba4e3"/>
  <text x="170" y="63" font-size="16" font-weight="700" fill="#1d2530">BalauDeck</text>
  <text x="270" y="63" font-size="12.5" fill="#9aa4ae">SSH · SFTP · Tunnel · DB</text>

  <!-- Sidebar -->
  <rect x="41" y="85" width="268" height="682" fill="#ffffff"/><line x1="309" y1="85" x2="309" y2="767" stroke="#eceff2"/>
  <text x="64" y="120" font-size="12.5" font-weight="700" fill="#7c8893" letter-spacing="0.4">CONNECTIONS</text>
  <g stroke="#9aa4ae" stroke-width="1.7" fill="none" stroke-linecap="round" stroke-linejoin="round">
    <path d="M250 110 a8 8 0 1 1 -2.3 -5.6 M250 105 v4 h-4"/>
    <path d="M268 116 h16 a1.6 1.6 0 0 0 1.6 -1.6 v-7 a1.6 1.6 0 0 0 -1.6 -1.6 h-6.3 l-1.5 -1.7 h-3.2 a1.6 1.6 0 0 0 -1.6 1.6 v9.3 a1.6 1.6 0 0 0 1.6 1.6Z"/>
    <path d="M292 106 h12 M298 100 v12"/>
  </g>
  <rect x="64" y="132" width="222" height="34" rx="9" fill="#f4f6f8" stroke="#e4e9ee"/>
  <circle cx="84" cy="149" r="6" fill="none" stroke="#aab3bc" stroke-width="1.6"/><line x1="88" y1="153" x2="92" y2="157" stroke="#aab3bc" stroke-width="1.6" stroke-linecap="round"/>
  <text x="100" y="153" font-size="12.5" fill="#aab3bc">Search databases &amp; objects</text>
  <g font-size="13.5" fill="#27313c">
    <g transform="translate(70,188)" fill="none" stroke="#1f9e8f" stroke-width="1.5"><ellipse cx="8" cy="3" rx="8" ry="2.6"/><path d="M0 3 v9 c0 1.5 3.6 2.6 8 2.6 s8 -1.1 8 -2.6 v-9"/></g><text x="98" y="200">sample_db</text>
    <g transform="translate(70,224)" fill="none" stroke="#1f9e8f" stroke-width="1.5"><ellipse cx="8" cy="3" rx="8" ry="2.6"/><path d="M0 3 v9 c0 1.5 3.6 2.6 8 2.6 s8 -1.1 8 -2.6 v-9"/></g><text x="98" y="236">sample_db_staging</text>
    <g transform="translate(70,260)"><rect x="0" y="0" width="16" height="13" rx="2.5" fill="none" stroke="#5fbf57" stroke-width="1.6"/><rect x="2" y="2" width="20" height="16" rx="2.5" fill="#fff" stroke="#5fbf57" stroke-width="1.6"/><path d="M6 7 l4 3 l-4 3" fill="none" stroke="#5fbf57" stroke-width="1.6" stroke-linecap="round" stroke-linejoin="round"/></g><text x="98" y="272">sample-server · user@host</text>
    <g transform="translate(70,296)"><path d="M0 17 h16 a1.6 1.6 0 0 0 1.6 -1.6 v-9 a1.6 1.6 0 0 0 -1.6 -1.6 h-7 l-1.6 -1.8 h-5.8 a1.6 1.6 0 0 0 -1.6 1.6 v11Z" fill="none" stroke="#4ba4e3" stroke-width="1.5"/></g><text x="98" y="308">sample-files (SFTP)</text>
    <!-- selected: tunnel -->
    <rect x="52" y="322" width="246" height="34" rx="8" fill="#fbf2e4"/>
    <g transform="translate(70,332)"><path d="M11 0 l4 4 l-4 4 M15 4 H1 M5 18 l-4 -4 l4 -4 M1 14 h14" fill="none" stroke="#e0992e" stroke-width="1.8" stroke-linecap="round" stroke-linejoin="round"/></g>
    <text x="98" y="344" font-weight="600">sample-tunnel → 3307</text>
    <g fill="#3c4651"><text x="98" y="380">sample_app</text><text x="98" y="416">sample_shop</text><text x="98" y="452">sample_blog</text></g>
    <g fill="none" stroke="#1f9e8f" stroke-width="1.5">
      <g transform="translate(70,368)"><ellipse cx="8" cy="3" rx="8" ry="2.6"/><path d="M0 3 v9 c0 1.5 3.6 2.6 8 2.6 s8 -1.1 8 -2.6 v-9"/></g>
      <g transform="translate(70,404)"><ellipse cx="8" cy="3" rx="8" ry="2.6"/><path d="M0 3 v9 c0 1.5 3.6 2.6 8 2.6 s8 -1.1 8 -2.6 v-9"/></g>
      <g transform="translate(70,440)"><ellipse cx="8" cy="3" rx="8" ry="2.6"/><path d="M0 3 v9 c0 1.5 3.6 2.6 8 2.6 s8 -1.1 8 -2.6 v-9"/></g>
    </g>
  </g>

  <!-- Tab -->
  <rect x="310" y="85" width="930" height="40" fill="#fbfcfd"/><line x1="310" y1="125" x2="1240" y2="125" stroke="#e6ebf0"/>
  <rect x="326" y="93" width="120" height="32" rx="8" fill="#ffffff" stroke="#e0e6eb"/>
  <path d="M348 102 l4 4 l-4 4 M352 106 h-9 M338 116 l-4 -4 l4 -4 M334 112 h9" transform="translate(2,1)" fill="none" stroke="#e0992e" stroke-width="1.6" stroke-linecap="round" stroke-linejoin="round"/>
  <text x="366" y="114" font-size="12.5" font-weight="600" fill="#1d2530">Tunnel</text>
  <rect x="326" y="121" width="120" height="3" rx="1.5" fill="#e0992e"/>
  <text x="462" y="114" font-size="18" fill="#9aa4ae">+</text>

  <!-- Forward-a-port card -->
  <rect x="326" y="158" width="898" height="196" rx="12" fill="#ffffff" stroke="#e2e7ec"/>
  <text x="350" y="190" font-size="15" font-weight="700" fill="#1d2530">Forward a port</text>
  <text x="350" y="210" font-size="12.5" fill="#8a949f">Open a local port that tunnels through an SSH host to a remote service.</text>

  <g font-size="11.5" font-weight="600" fill="#7c8893">
    <text x="350" y="240">SSH HOST</text><text x="640" y="240">REMOTE HOST</text><text x="930" y="240">REMOTE PORT</text><text x="1066" y="240">LOCAL PORT</text>
  </g>
  <rect x="350" y="248" width="270" height="38" rx="9" fill="#fff" stroke="#dde3e8"/>
  <text x="366" y="272" font-size="13.5" fill="#27313c">sample-server</text>
  <path d="M600 263 l5 5 l5 -5" fill="none" stroke="#9aa4ae" stroke-width="1.6" stroke-linecap="round" stroke-linejoin="round"/>
  <rect x="640" y="248" width="270" height="38" rx="9" fill="#fff" stroke="#dde3e8"/>
  <text x="656" y="272" font-size="13.5" fill="#27313c">db.internal</text>
  <rect x="930" y="248" width="116" height="38" rx="9" fill="#fff" stroke="#dde3e8"/>
  <text x="946" y="272" font-size="13.5" fill="#27313c">3306</text>
  <rect x="1066" y="248" width="116" height="38" rx="9" fill="#fff" stroke="#dde3e8"/>
  <text x="1082" y="272" font-size="13.5" fill="#aab3bc">auto</text>

  <rect x="1066" y="302" width="116" height="38" rx="9" fill="#e0992e"/>
  <path d="M1090 315 l4 4 l-4 4 M1094 319 h-8 M1108 327 l4 -4 l-4 -4 M1112 323 h-8" transform="translate(-2,2)" fill="none" stroke="#fff" stroke-width="1.8" stroke-linecap="round" stroke-linejoin="round"/>
  <text x="1110" y="326" font-size="13.5" font-weight="600" fill="#ffffff">Start</text>

  <!-- Active tunnels -->
  <text x="326" y="396" font-size="13" font-weight="700" fill="#7c8893" letter-spacing="0.4">ACTIVE TUNNELS</text>

  <rect x="326" y="410" width="898" height="58" rx="12" fill="#ffffff" stroke="#e2e7ec"/>
  <circle cx="356" cy="439" r="5" fill="#37c463"/>
  <text x="378" y="436" font-size="14" font-weight="600" fill="#1d2530" font-family="ui-monospace,monospace">127.0.0.1:3307</text>
  <path d="M560 435 h28 M582 429 l8 6 l-8 6" fill="none" stroke="#9aa4ae" stroke-width="1.7" stroke-linecap="round" stroke-linejoin="round"/>
  <text x="604" y="436" font-size="14" fill="#39424d" font-family="ui-monospace,monospace">db.internal:3306</text>
  <text x="378" y="455" font-size="12" fill="#8a949f">via sample-server · 2 connections</text>
  <rect x="1110" y="424" width="94" height="32" rx="9" fill="#fff" stroke="#e6c0b9"/>
  <text x="1132" y="445" font-size="13" font-weight="600" fill="#c0392b">Stop</text>

  <rect x="326" y="480" width="898" height="58" rx="12" fill="#ffffff" stroke="#e2e7ec"/>
  <circle cx="356" cy="509" r="5" fill="#37c463"/>
  <text x="378" y="506" font-size="14" font-weight="600" fill="#1d2530" font-family="ui-monospace,monospace">127.0.0.1:6380</text>
  <path d="M560 505 h28 M582 499 l8 6 l-8 6" fill="none" stroke="#9aa4ae" stroke-width="1.7" stroke-linecap="round" stroke-linejoin="round"/>
  <text x="604" y="506" font-size="14" fill="#39424d" font-family="ui-monospace,monospace">cache.internal:6379</text>
  <text x="378" y="525" font-size="12" fill="#8a949f">via sample-server · 1 connection</text>
  <rect x="1110" y="494" width="94" height="32" rx="9" fill="#fff" stroke="#e6c0b9"/>
  <text x="1132" y="515" font-size="13" font-weight="600" fill="#c0392b">Stop</text>
</svg>
